<?xml version="1.0" encoding="utf-8"?>
<!-- Generator: Adobe Illustrator 22.0.1, SVG Export Plug-In . SVG Version: 6.00 Build 0)  -->
<svg version="1.1" id="Layer_1" xmlns="http://www.w3.org/2000/svg" xmlns:xlink="http://www.w3.org/1999/xlink" x="0px" y="0px"
	 viewBox="0 0 512 512" style="enable-background:new 0 0 512 512;" xml:space="preserve">
<style type="text/css">
	.st0{fill:#FFFFFF;}
	.st1{fill:#9045B0;}
	.st2{fill:#4B79F0;}
</style>
<path class="st0" d="M74.7,328.1c-2.9,5.8-1.8,12.8,2.8,17.3l3.7,3.7c10.6-12.6,22.9-26.2,37.9-41.2c1.1-1.1,2.1-1.6,3.2-2.5
	l-23.6-23.6C85,306.6,77,323.5,74.7,328.1z"/>
<path class="st0" d="M204,392.8c-15,15-28.6,27.4-41.1,38l5,5c4.6,4.6,11.7,5.7,17.5,2.7c7.8-4,20-9.8,45.9-24.2l-24.7-24.7
	C205.6,390.6,205.1,391.7,204,392.8z"/>
<path class="st1" d="M196,315.9c-10.8-10.8-41.3-1.1-55.6,13.2c-48,47.9-69.6,81.9-79.3,102c-2.8,5.7-1.6,12.6,2.9,17.1
	s11.4,5.7,17.2,2.9c19.6-9.5,53.2-31.1,101.6-79.5C198.5,355.8,206.3,326.2,196,315.9L196,315.9z"/>
<path class="st1" d="M46.8,199.7L4.4,242.1c-4.8,4.8-5.8,12.2-2.4,18.1c3.3,5.8,10.3,8.8,16.9,7c22.9-6.1,43.1-8.7,56.7-5.3
	c19.3-34.4,40.1-66,62.1-94.7C124.9,159.1,82.9,163.6,46.8,199.7z"/>
<path class="st1" d="M253.9,510.4c5.8,2.9,12.8,1.8,17.3-2.8l42.4-42.4c32.8-32.9,38.6-75.2,31.2-88.7c-32,24.2-64.5,44.5-94.8,61.6
	c2.1,11.8,0.7,23.2-4.2,56.7C244.8,501.3,248.2,507.5,253.9,510.4z"/>
<path class="st0" d="M297.8,150.5c-17.5,17.5-17.5,46.1,0,63.6s46.1,17.5,63.6,0s17.5-46.1,0-63.6S315.3,132.9,297.8,150.5z"/>
<path class="st1" d="M511.1,14.6c-0.5-7.4-6.4-13.3-13.8-13.8C460.4-2,423.7,2.6,387.8,13.6c2.7,24.7,15.5,51.5,37.3,73.3
	c22.1,22.1,49.6,34.9,74.7,37.2C509.5,90.1,514.1,53.8,511.1,14.6z"/>
<path class="st2" d="M403.9,108c-25-25-40.2-54.9-45.1-84c-90.1,36.9-176.3,117.6-244.4,230.9l33.9,33.9c23.1-9.4,51.2-11.9,69,5.9
	s15.3,45.9,5.9,69l35,35c87.2-52.6,188.7-135.3,231.9-245.5C460.1,148.7,429.2,133.4,403.9,108z M382.7,235.3
	c-29.2,29.2-76.8,29.2-106.1,0c-29.2-29.2-29.2-76.8,0-106.1s76.8-29.2,106.1,0C411.9,158.5,411.9,206.1,382.7,235.3z"/>
</svg>
